<?xml version="1.0" encoding="utf-8"?>
<!-- Generator: Adobe Illustrator 25.1.0, SVG Export Plug-In . SVG Version: 6.00 Build 0)  -->
<svg version="1.1" id="Layer_1" xmlns="http://www.w3.org/2000/svg" xmlns:xlink="http://www.w3.org/1999/xlink" x="0px" y="0px"
	 viewBox="0 0 664.2 357.2" style="enable-background:new 0 0 664.2 357.2;" xml:space="preserve">
<style type="text/css">
	.st0{fill:#FFFFFF;}
	.st1{fill-rule:evenodd;clip-rule:evenodd;fill:#FFFFFF;}
</style>
<g>
	<path class="st0" d="M197,182.4c0,0,11.6-10,20.3-6.8c9,3.2,13.5,14.2,12.9,20.6c-1.9,14.2-13.9,32.9-13.9,32.9s45.8-28.7,47.4-30
		c1.9-1,3.9-1.3,6.8,0c2.6,1.3,5.5,2.9,5.2,7.7c-0.6,5.2,0,33.8,0.6,38.7c1,4.2-5.8,6.1-9.3,1.3c-5.5-7.4-2.9-33.8-2.9-33.8
		s-20.6,18.7-34.2,24.5c-13.5,5.8-24.2,0.6-25.5-5.5c-1.3-6.1,15.8-32.5,14.8-40.9c-1.3-8.4-2.3-4.2-13.9-5.5
		C199.9,185,197,182.4,197,182.4L197,182.4z"/>
	<path class="st0" d="M148.3,175.3c0.6-3.5,25.8-5.2,32.5,13.5c8.4,23.2-12.6,32.9-15.1,36.7c0,0-13.5,15.1-20,29.6
		c-6.1,14.2-7.4,18.7-9.3,18c-1.9,0-3.5-17.1,1.3-31.3c4.8-13.9,11-30.6,14.2-41.6c0,0,2.9-13.5,1.6-17.7
		C152.2,179.2,148.3,175.3,148.3,175.3L148.3,175.3z"/>
	<path class="st0" d="M0,219.8c1.3-3.5,64.8-48.3,144.7-77.7c41.9-15.1,62.5-16.1,97.6-18.7c38.4-1.3,55.4,6.4,56.4,8.4
		c2.6,5.2-6.1,5.5-6.1,5.5l1.9-3.5c0,0-15.1-0.3-41.2,3.5c-22.9,3.2-50.6,9-98.9,28.7c-15.1,6.4-33.8,19-46.1,25.5
		c-37.7,19.7-50.3,25.8-71.2,32.2C12.9,230.4-0.9,223.3,0,219.8L0,219.8z"/>
	<path class="st0" d="M293.3,196.3c0,0,6.1-0.3,8.7,10c1-0.6,2.3-1.3,3.9-2.6c6.1-4.2,40.9-30.6,52.9-35.4
		c11.6-4.8,20.3,3.2,21.9,7.4c1,2.3-1.6,3.9-1.6,3.9s0.6,2.6-1.9,5.2c-1.3,1.3-1.3,1.3-1.6,3.2c-0.3,2.3-1.6,5.5-4.2,4.5
		c-2.3-1-3.2-5.8-6.4-4.5c-2.9,1.6-5.2-8.7-48.3,23.2c-7.4,5.5-11.9,4.8-14.2,2.9c-1.3,9.3-6.1,23.8-5.8,25.1c0,1.9,0,9.3-2.3,9.3
		c-1.9,0-6.8-1.9-7.4-12.6c-0.6-10.3,4.2-26.7,5.5-31.6C293.6,199.8,293.3,196.3,293.3,196.3L293.3,196.3z"/>
	<path class="st1" d="M411.9,137c7.4-0.6,9.7,11.3,9.7,13.5c0.3,4.8-1.9,11.3-1.6,13.9c0,1.3-4.5,12.9-6.8,19c0,0,0.3,0.3,0.6,0.3
		l39.6-17.4c3.2-0.3,6.8,2.9,7.1,6.4c0.3,4.8-8.4,4.5-11,5.5c-13.9,6.8-30.3,13.5-42.9,21.6c-1.3,0.6-1.6,2.9-2.6,4.5
		c0,0-0.3,0,0.6,0c1,0,38,9,39,9c1.9,0,12.2,2.3,12.6,7.1c0.3,4.5-5.8,7.7-7.4,8.1c-4.8,0.3-3.5-6.1-6.4-5.8
		c-4.5,0.3-34.5-10.6-42.9-5.8c-7.7,4.5-5.8,14.8-9.3,22.2c2.3,2.3,2.9,1.6,2.9,3.2c0.3,2.3-1.6,3.5-2.6,3.9
		c-6.4,0.3-9.3-12.6-9.7-14.2c0-1,0.3-6.8,0.6-10c-0.6-0.3-1.6,0-2.3,0c-1.3,0-8.4,2.3-9.3,2.3c-4.2,0.3-8.7-7.7-9-11
		c-0.3-6.4,15.8-13.2,17.7-13.5c21.6-5.8,20.9-32.9,30.6-50c1.3-2.9,1-5.8,1-8.7c0-1.9-1.6-1.3-2.9-2.6
		C409,137.6,410.9,137,411.9,137L411.9,137z"/>
	<path class="st0" d="M497.6,147.9c0.6,0,1.6,0.3,2.3,0.3c2.9,0,10.6,7.4,11,9.3c0.3,2.3-4.5,7.4-6.4,7.4c-0.6,0-1.3-0.3-1.6-0.3
		c-3.2,0.3-5.5,0.3-6.1,0.3c-0.6,0-4.2-1.6-6.4-2.9C490.2,161.8,494.4,147.9,497.6,147.9L497.6,147.9z"/>
	<path class="st0" d="M489.2,175.6c4.5-0.3,8.4,5.8,8.7,9c0,1-11.3,32.9-11.6,33.8c-2.3,6.4,3.2,12.2,3.5,14.5
		c0.3,2.3-2.6,10.3-7.1,10.3c-1,0-1.3-1-1.9-1c-0.6,0-3.9-2.3-5.2-2.3c-0.6,0-1.3,0.3-1.9,0.3c-4.2,0-11.6-6.4-11.9-9.3
		C460.9,225.6,484.7,181.8,489.2,175.6L489.2,175.6z"/>
	<path class="st1" d="M648.1,162.1c-4.8-1-7.4-1.9-12.2,0.6c-2.6,1.6-6.8,3.5-11.6,6.4c-4.2,2.6-9,6.1-14.2,10.6
		c-10.6,9.7-31.6,31.3-26.1,41.2c5.2,10.3,15.1,12.9,17.1,13.2c1.6,0.3,11,1,23.2-6.1c2.3-1.3,4.5-2.9,6.8-4.5
		c15.5-11.9,25.5-22.6,25.5-25.1c-0.3-2.9,0.6-6.1-3.9-3.2c-3.2,1.9-17.7,11-28.4,17.1c-3.2,1.9-6.1,3.5-8.4,4.8
		c-9.7,4.8-14.5,6.4-15.1,5.5c-0.6-1,1-9.7,3.9-11.9c2.9-1.9,2.9,0.3,8.7-3.2c2.6-1.6,6.4-4.2,11-7.4c6.1-3.9,12.9-8.4,18-11
		c9-4.2,21.3-12.6,21.9-17.1v-0.3v-0.3C662.9,167.6,653,163.4,648.1,162.1z M641.4,173.1c-1.6,2.9-10.6,9.7-17.1,15.1
		c-0.3,0.3-0.6,0.6-1,1c-6.8,5.5-16.4,12.9-16.4,12.9s6.1-13.2,17.4-23.2c0.3-0.3,0.6-0.6,0.6-1
		C636.5,167.6,643.3,170.5,641.4,173.1z"/>
	<path class="st1" d="M200.8,0.6c0,0,26.1,1.6,44.5,9.7c15.5,7.1,25.5,16.8,43.5,23.8c24.5,9.7,46.4,15.8,54.5,18.4
		c14.8,5.2,28.4,19,36.4,43.5c-3.9-4.2-11.6-11.9-21.9-18.7c-10.6-7.7-20.3-11.6-27.1-14.5c-15.1-5.8-22.6-9.7-22.6-9.7
		s9.7,6.4,23.2,13.9c13.5,7.7,30.6,19.3,40.6,30.9c8.1,9,11.9,17.4,13.5,23.2c0.6,2.6,0.6,5.2,1.3,8.1c3.5,36.1,7.4,41.6,7.4,41.6
		c-17.1-20.9-34.2-13.5-37.4-10.3c0,0-0.3-10.6-0.3-32.9c0-21.9-17.7-39.3-24.2-44.1c-3.2-1.9-27.1-13.9-55.1-32.9
		c-14.5-10-25.1-22.2-37.4-31.3C222.7,6.4,200.8,0.6,200.8,0.6L200.8,0.6z"/>
	<path class="st0" d="M507,0c0,0-16.4,31.6-37.1,43.5c-4.2,2.6-7.7,4.5-10.6,6.1c3.2-1,7.1-2.3,11.6-3.9c22.6-8.1,60.9-3.2,60.9-3.2
		s-33.8,1.9-52.5,30c-26.7,41.2-86.4,51.6-92.8,18c-0.6-2.6,0.6-5.2,1.3-7.1c18.4,11.9,37.7-6.8,51.2-24.2
		c-22.2-1-48.7,1.9-51.6,23.8c-1.9-1-4.5-1.6-6.1-3.9c-21.9-26.4,24.5-65.1,73.5-59.3C488.3,23.8,507,0,507,0L507,0z"/>
	<path class="st0" d="M349.1,162.1c0,0-12.9-1.3-12.9-32.2c0-21.3,6.8-20.6,6.8-20.6s6.1,8.7,6.1,21.9
		C349.1,144.1,349.1,162.1,349.1,162.1L349.1,162.1z"/>
	<path class="st0" d="M526.9,170.5c0,0,1,6.1-0.3,12.9c-1.6,6.8-14.5,24.5-5.8,30.3c7.4,4.8,46.4-28.4,53.2-27.7
		c1.9,0.3,6.4,8.4,1.9,27.4c-4.2,19-38,110.5-39.3,122.5c-1,11.9,0,20.9-4.5,21.3c-14.2,1.9-24.8-18.4-21.9-35.1
		c2.9-17.1,45.1-81.5,51.9-96c11-23.2,8.1-28.4,8.1-28.4s-27.4,25.1-42.9,26.4c-15.5,1-28-15.8-18.4-33.8
		C512.4,182.7,526.9,170.5,526.9,170.5L526.9,170.5z"/>
	<path class="st0" d="M260.8,155l1.9,3.5c-2.3,5.5-4.5,6.8-6.1,7.4l-14.8,8.7c-1.3,1-4.2,3.5-4.5,3.2c-1.9-1.3-1.6-4.2-1.9-5.2
		c1.9-5.5,7.7-10.3,7.7-11c2.6-1.6,5.8-3.2,8.1-3.9L260.8,155L260.8,155z"/>
	<path class="st0" d="M287.8,163.4l1.9,3.5c-2.3,5.5-4.5,6.8-6.1,7.1l-14.8,9c-1.3,1-3.9,3.5-4.2,3.2c-2.3-1.3-1.9-4.2-2.3-5.5
		c1.9-5.2,7.7-10.3,8.1-10.6c2.3-1.6,5.5-3.2,7.7-3.9L287.8,163.4L287.8,163.4z"/>
</g>
</svg>
