<?xml version="1.0" encoding="UTF-8" standalone="no"?>
<svg
   xmlns:dc="http://purl.org/dc/elements/1.1/"
   xmlns:cc="http://creativecommons.org/ns#"
   xmlns:rdf="http://www.w3.org/1999/02/22-rdf-syntax-ns#"
   xmlns:svg="http://www.w3.org/2000/svg"
   xmlns="http://www.w3.org/2000/svg"
   viewBox="0 0 385.98132 409.54001"
   height="409.54001"
   width="385.98132"
   xml:space="preserve"
   id="svg2"
   version="1.1"><metadata
     id="metadata8"><rdf:RDF><cc:Work
         rdf:about=""><dc:format>image/svg+xml</dc:format><dc:type
           rdf:resource="http://purl.org/dc/dcmitype/StillImage" /></cc:Work></rdf:RDF></metadata><defs
     id="defs6"><clipPath
       id="clipPath18"
       clipPathUnits="userSpaceOnUse"><path
         id="path16"
         d="M 0,307.155 H 289.486 V 0 H 0 Z" /></clipPath></defs><g
     transform="matrix(1.3333333,0,0,-1.3333333,0,409.54)"
     id="g10"><g
       id="g12"><g
         clip-path="url(#clipPath18)"
         id="g14"><g
           transform="translate(250.8087,110.7848)"
           id="g20"><path
             id="path22"
             style="fill:#b7b6b6;fill-opacity:1;fill-rule:evenodd;stroke:none"
             d="m 0,0 c 8.121,-16.012 9.056,-39.174 -4.993,-53.77 -5.075,-5.262 -12.745,-9.715 -22.197,-13.362 -5.517,-10.422 -39.345,-18.449 -80.242,-18.449 -40.909,0 -74.726,8.027 -80.258,18.449 -9.448,3.647 -17.118,8.1 -22.2,13.362 -14.049,14.596 -13.118,37.758 -4.99,53.77 18.332,36.141 66.586,30.17 72.828,39.45 4.846,7.205 1.959,29.355 2.286,35.062 22.58,-2.165 41.851,-1.684 64.424,0.474 C -75.02,69.278 -77.67,46.655 -72.828,39.45 -66.578,30.17 -18.336,36.141 0,0" /></g><g
           transform="translate(250.8087,110.7848)"
           id="g24"><path
             id="path26"
             style="fill:#444445;fill-opacity:1;fill-rule:evenodd;stroke:none"
             d="m 0,0 c 8.121,-16.012 9.056,-39.174 -4.993,-53.77 -5.075,-5.262 -12.745,-9.715 -22.197,-13.362 -5.517,-10.422 -39.345,-18.449 -80.242,-18.449 -40.909,0 -74.726,8.027 -80.258,18.449 -9.448,3.647 -17.118,8.1 -22.2,13.362 -14.049,14.596 -13.118,37.758 -4.99,53.77 13.944,27.481 45.181,30.612 62.093,34.62 3.911,-12.904 6.064,-27.562 24.598,-30.666 2.328,-0.392 20.703,-27.826 20.703,-27.826 0,0 18.421,27.442 20.718,27.841 18.297,3.178 18.266,18.154 21.828,31.38 C -48.94,30.895 -14.774,29.118 0,0" /></g><g
           transform="translate(161.4645,155.205)"
           id="g28"><path
             id="path30"
             style="fill:#cccccc;fill-opacity:1;fill-rule:evenodd;stroke:none"
             d="m 0,0 c 6.494,4.291 11.309,10.747 14.844,18.53 2.526,5.602 4.404,11.896 5.75,18.545 0.795,0.187 1.668,0.668 2.475,1.292 1.987,1.494 3.337,3.45 4.462,5.77 3.073,6.289 4.462,15.139 1.304,19.228 -1.358,1.769 -3.314,2.266 -5.324,1.971 0.051,2.041 0.07,4.082 0.07,6.099 0,11.741 -0.031,26.143 -3.841,34.368 -2.766,6.006 -6.987,9.94 -11.981,12.85 -19.135,11.142 -32.582,11.142 -51.702,0 -4.997,-2.91 -9.207,-6.844 -11.992,-12.85 -3.807,-8.225 -3.845,-22.627 -3.845,-34.368 0,-2.017 0.023,-4.058 0.089,-6.099 -2.006,0.295 -3.981,-0.202 -5.343,-1.971 -3.146,-4.089 -1.758,-12.939 1.312,-19.228 1.117,-2.32 2.475,-4.276 4.469,-5.77 0.807,-0.616 1.676,-1.105 2.483,-1.292 1.335,-6.649 3.205,-12.943 5.746,-18.545 C -47.505,10.747 -42.678,4.291 -36.184,0 -25.995,-6.728 -10.193,-6.728 0,0" /></g><g
           transform="translate(177.4257,152.9547)"
           id="g32"><path
             id="path34"
             style="fill:#939393;fill-opacity:1;fill-rule:evenodd;stroke:none"
             d="m 0,0 -34.103,-66.042 20.625,14.029 8.155,13.781 18.561,7.876 10.584,20.397 z" /></g><g
           transform="translate(109.3118,152.9547)"
           id="g36"><path
             id="path38"
             style="fill:#939393;fill-opacity:1;fill-rule:evenodd;stroke:none"
             d="m 0,0 34.111,-66.042 -20.632,14.029 -8.152,13.781 -18.565,7.876 -10.584,20.397 z" /></g><g
           transform="translate(62.3349,44.925)"
           id="g40"><path
             id="path42"
             style="fill:#222323;fill-opacity:1;fill-rule:evenodd;stroke:none"
             d="M 0,0 0.784,-0.31 C 1.8,-2.223 3.764,-4.05 6.549,-5.766 L 5.866,7.5 C 4.33,36.858 5.028,36.172 1.04,7.48 Z" /></g><g
           transform="translate(217.8535,39.1594)"
           id="g44"><path
             id="path46"
             style="fill:#222323;fill-opacity:1;fill-rule:evenodd;stroke:none"
             d="m 0,0 c 2.778,1.715 4.757,3.542 5.766,5.455 l 0.791,0.311 -1.032,7.48 c -4,28.691 -3.306,29.378 -4.835,0.019 z" /></g></g></g></g></svg>